/* XPM */
static char *drive_16x16[] = {
/* columns rows colors chars-per-pixel */
"16 16 138 2 ",
"   c #0E975A",
".  c #079859",
"X  c #069B5A",
"o  c #069C5A",
"O  c #079C5B",
"+  c #079D5B",
"@  c #089E5B",
"#  c #0A9D5C",
"$  c #089F5C",
"%  c #099F5C",
"&  c #099F5D",
"*  c #189455",
"=  c #139E5F",
"-  c #159C5F",
";  c #319D51",
":  c #09A15C",
">  c #09A15D",
",  c #09A25D",
"<  c #0AA25E",
"1  c #0BA35E",
"2  c #0CA25F",
"3  c #0DA35F",
"4  c #0BA45F",
"5  c #0CA45F",
"6  c #0CA55F",
"7  c #0DA65F",
"8  c #099963",
"9  c #0C9174",
"0  c #0EA260",
"q  c #0FA561",
"w  c #0EA760",
"e  c #0FA661",
"r  c #0FA861",
"t  c #16A263",
"y  c #16A363",
"u  c #12A461",
"i  c #11A562",
"p  c #11A862",
"a  c #11A963",
"s  c #13A863",
"d  c #14A864",
"f  c #71AA51",
"g  c #B5B43F",
"h  c #EEBE37",
"j  c #E2B73B",
"k  c #E6BA3E",
"l  c #E8BA39",
"z  c #F3C137",
"x  c #F3C139",
"c  c #F6C338",
"v  c #F6C439",
"b  c #F7C53B",
"n  c #F8C63C",
"m  c #F8C63D",
"M  c #F8C73D",
"N  c #F9C73E",
"B  c #F9C83F",
"V  c #97AD45",
"C  c #EABF42",
"Z  c #E5C244",
"A  c #EDC44A",
"S  c #F3C645",
"D  c #F0C547",
"F  c #F7C842",
"G  c #F9C840",
"H  c #F9C941",
"J  c #FAC941",
"K  c #FAC942",
"L  c #FACA43",
"P  c #FBCB44",
"I  c #FBCB45",
"U  c #FBCC45",
"Y  c #FBCC46",
"T  c #FBCC47",
"R  c #FCCC46",
"E  c #FCCD47",
"W  c #FDCE49",
"Q  c #FCCE4A",
"!  c #FDCF4A",
"~  c #FCCE4B",
"^  c #FBCF4E",
"/  c #FCCF4D",
"(  c #FDD04C",
")  c #FED14C",
"_  c #FDD04E",
"`  c #FED24F",
"'  c #FCCF50",
"]  c #FDD050",
"[  c #FED150",
"{  c #1A7BAA",
"}  c #2974CC",
"|  c #256BD0",
" . c #276BDE",
".. c #2C6CDA",
"X. c #276BE1",
"o. c #286EE6",
"O. c #286FE7",
"+. c #296FE7",
"@. c #2D70E1",
"#. c #2B72EA",
"$. c #2D74EC",
"%. c #2D75ED",
"&. c #2E75EC",
"*. c #2E75ED",
"=. c #2F77EF",
"-. c #3274E1",
";. c #3275E4",
":. c #3779E8",
">. c #3179F1",
",. c #3279F0",
"<. c #3279F1",
"1. c #327AF1",
"2. c #337BF1",
"3. c #337AF2",
"4. c #367DF4",
"5. c #377EF4",
"6. c #3A7FF3",
"7. c #387EF4",
"8. c #387EF5",
"9. c #397FF5",
"0. c #387EF6",
"q. c #178892",
"w. c #5B82B7",
"e. c #5881BA",
"r. c #5A83BD",
"t. c #3D81F4",
"y. c #3D81F5",
"u. c #3C81F7",
"i. c #3D82F7",
"p. c #3F83F7",
"a. c #3C81F8",
"s. c #3F83F9",
"d. c #5D88C1",
"f. c #5B8BD2",
"g. c #618BC4",
"h. c #4084F9",
"j. c #4286FB",
"k. c None",
/* pixels */
"k.k.k.k.k.k.k.k.k.k.k.k.k.k.k.k.",
"k.k.k.k.k.g v v v m B k.k.k.k.k.",
"k.k.k.k.. ; x m G G G G k.k.k.k.",
"k.k.k.k.O . V G P U E U k.k.k.k.",
"k.k.k., & & * Z ~ ( ! ~ E k.k.k.",
"k.k., , 2 2   f ~ ( ( ( E P k.k.",
"k.k., 6 u i = - / / [ ( E P k.k.",
"k., 0 w i s y k.k.' / ~ U G B k.",
"k., 6 s s d y k.k.A D D G B m k.",
"@ , , 7 0 i k.k.k.k.C k j l h z ",
"O , , , 7 } -.:.y.y.f.g.d.r.e.w.",
"k.O & & q...;.7.h.h.y.7.,.$.+.k.",
"k.. O 8 | @.,.u.s.j.h.7.,.$.#.k.",
"k.k.O {  .$.,.7.a.s.a.4.,.$.k.k.",
"k.k.9 X.O.#.>.3.4.7.4.,.=.$.k.k.",
"k.k.k.k.k.k.k.k.k.k.k.k.k.k.k.k."
};
