/* XPM */
static char *drive_32x32[] = {
/* columns rows colors chars-per-pixel */
"32 32 82 1 ",
"  c #0A9156",
". c #079658",
"X c #0D9659",
"o c #079C5A",
"O c #099E5C",
"+ c #169353",
"@ c #10975B",
"# c #139B5E",
"$ c #229952",
"% c #219D5C",
"& c #369D55",
"* c #0BA25E",
"= c #089862",
"- c #0A956A",
"; c #169E61",
": c #129D6F",
"> c #12927B",
", c #0EA560",
"< c #0FA861",
"1 c #13A562",
"2 c #18A364",
"3 c #13A863",
"4 c #51A44D",
"5 c #5DA14C",
"6 c #79A647",
"7 c #D3BB3F",
"8 c #E5B737",
"9 c #E7B836",
"0 c #ECBC36",
"q c #E2B63A",
"w c #E6BA3D",
"e c #EBBC3B",
"r c #F1BF37",
"t c #F6C439",
"y c #F8C63D",
"u c #F9C83F",
"i c #9DB54F",
"p c #A5B040",
"a c #B6B647",
"s c #E9BE41",
"d c #ECC144",
"f c #EEC44A",
"g c #F4C541",
"h c #F8C740",
"j c #F6C846",
"k c #FBCB44",
"l c #F2C74B",
"z c #F6CA4A",
"x c #FCCE4A",
"c c #FDD14E",
"v c #FBCF50",
"b c #FDD150",
"n c #1E76BC",
"m c #2076B8",
"M c #256AD3",
"N c #2668DA",
"B c #2B6CD9",
"V c #2C72D5",
"C c #2F70DD",
"Z c #3172DF",
"A c #286EE6",
"S c #2D72E5",
"D c #2D74EC",
"F c #3476E3",
"G c #3077EC",
"H c #3479EC",
"J c #397CEB",
"K c #347BF2",
"L c #387FF5",
"P c #13898A",
"I c #16829A",
"U c #1F80AC",
"Y c #5F83B3",
"T c #5982BB",
"R c #3C81F6",
"E c #3E82F8",
"W c #5D87C1",
"Q c #5E89C2",
"! c #5087DD",
"~ c #628CC5",
"^ c #4185FA",
"/ c None",
/* pixels */
"////////////////////////////////",
"////////////////////////////////",
"////////////////////////////////",
"//////////4tttttytyyyy//////////",
"//////////optttyyyyyky//////////",
"/////////oo$rttyyyyyykk/////////",
"/////////oo.6yyhykkkkkk/////////",
"////////ooo.+7hhkkkkkkxk////////",
"///////ooOOo 5hkkkkxxkxkk///////",
"///////*O*OO  akxxxcxxxkk///////",
"//////***O*;.X&jxxccccxxxk//////",
"//////****,,#@@ixxcccccxkk//////",
"/////***,,1,1@;%xccbbbcxkkk/////",
"/////**,,,131;;//cbbcccxxkk/////",
"////**,,,<333;;//bbbccxxkkky////",
"///***<<<33332////vbcxxkkkkuk///",
"///***,<<33332////flzzxjkyyyy///",
"//***,,,3<3<3//////fdddgykyytt//",
"//o*****<<11;//////ddssqqwrttt//",
"/Oo*****,111////////ewwqqq8890t/",
"/OOO*****,:VZFFJRRRR!~QQWWTTTTY/",
"//oOo*****mCZFJRRR^RRRLHGDDAAA//",
"//oO*oo**>VBCFLR^^^^RRJKKDDAAA//",
"///oooooomBBSKLRR^^^RRLKKGDAA///",
"///oooooPMNSKKLLE^^EEELKGKDAA///",
"////ooo=MNADHKLREE^EEELKKDDD////",
"/////ooINADDKKLLEEEELLLKDDD/////",
"/////o-NAADDDKKKLRELLLKDKDD/////",
"//////nAAAADDKKKKLLKLKKKKD//////",
"////////////////////////////////",
"////////////////////////////////",
"////////////////////////////////"
};
